<svg width="30" height="30" viewBox="0 0 30 30" fill="none" xmlns="http://www.w3.org/2000/svg">
<path d="M10.0003 10C4.98026 10 1.19312 11.8029 1.19312 14.1943C1.19312 16.5857 4.98026 18.3871 10.0003 18.3871C15.0203 18.3871 18.8074 16.5843 18.8074 14.1943C18.8074 11.8043 15.0203 10 10.0003 10Z" fill="#9E77ED"/>
<path d="M10 21.0486C6.91376 21.178 3.85571 20.4141 1.19287 18.8486V20C1.19287 22.3914 4.98001 24.1943 10 24.1943C15.02 24.1943 18.8072 22.3914 18.8072 20V18.8486C16.1443 20.4141 13.0863 21.178 10 21.0486Z" fill="#9E77ED"/>
<path d="M10 26.8572C6.91376 26.9866 3.85571 26.2227 1.19287 24.6572V25.8086C1.19287 28.1972 4.98001 30 10 30C15.02 30 18.8072 28.1972 18.8072 25.8057V24.6543C16.1446 26.2209 13.0865 26.9857 10 26.8572Z" fill="#9E77ED"/>
<path d="M20.0003 0C14.9803 0 11.1931 1.80286 11.1931 4.19429C11.1931 6.58571 14.9803 8.38714 20.0003 8.38714C25.0203 8.38714 28.8074 6.58429 28.8074 4.19429C28.8074 1.80429 25.0203 0 20.0003 0Z" fill="#9E77ED"/>
<path d="M20 11.0486C16.9138 11.178 13.8557 10.4141 11.1929 8.84857V10C11.1929 12.3914 14.98 14.1943 20 14.1943C25.02 14.1943 28.8072 12.3914 28.8072 10V8.84857C26.1443 10.4141 23.0863 11.178 20 11.0486Z" fill="#9E77ED"/>
<path d="M20 16.8572C16.9138 16.9866 13.8557 16.2227 11.1929 14.6572V15.8086C11.1929 18.1972 14.98 20 20 20C25.02 20 28.8072 18.1972 28.8072 15.8057V14.6543C26.1446 16.2209 23.0865 16.9857 20 16.8572Z" fill="#9E77ED"/>
</svg>
