<svg width="30" height="30" viewBox="0 0 30 30" fill="none" xmlns="http://www.w3.org/2000/svg">
<path fill-rule="evenodd" clip-rule="evenodd" d="M0 0.46875C0 0.209867 0.209867 0 0.46875 0H1.875C2.13388 0 2.34375 0.209867 2.34375 0.468751V27.6562H29.5312C29.7901 27.6562 30 27.8661 30 28.125V29.5312C30 29.7901 29.7901 30 29.5312 30H0V0.46875Z" fill="#9E77ED"/>
<path d="M7.70188 19.7183C7.88407 19.9022 8.18087 19.9036 8.36478 19.7214L13.4866 14.6474L18.4524 19.4476C18.6414 19.6304 18.9438 19.6219 19.1223 19.4289L25.4659 12.5696L27.3029 14.4066C27.5982 14.7019 28.1031 14.4928 28.1031 14.0751V8.63455C28.1031 8.37566 27.8932 8.1658 27.6344 8.1658H22.1938C21.7762 8.1658 21.567 8.67071 21.8623 8.966L23.8073 10.911L18.7031 16.4302L13.7963 11.687C13.613 11.5098 13.3217 11.5116 13.1406 11.691L6.7153 18.0563C6.53138 18.2385 6.52999 18.5353 6.71219 18.7192L7.70188 19.7183Z" fill="#9E77ED"/>
</svg>
