<svg width="17" height="15" viewBox="0 0 17 15" fill="none" xmlns="http://www.w3.org/2000/svg">
<g clip-path="url(#clip0_30_72)">
<path d="M16.4024 9.47897L14.5715 7.6557C14.4256 7.53066 14.3098 7.38218 14.2309 7.21876C14.152 7.05534 14.1115 6.88019 14.1116 6.70333V5.15203C14.0678 3.87677 13.4642 2.66268 12.4213 1.75246C11.3785 0.842241 9.97338 0.302971 8.48684 0.242453C6.96602 0.194778 5.4845 0.662527 4.36304 1.54443C3.24158 2.42633 2.57042 3.65141 2.4949 4.95442V6.70333C2.49502 6.88019 2.45448 7.05534 2.37558 7.21876C2.29668 7.38218 2.18097 7.53066 2.03507 7.6557L0.237374 9.47897C0.127827 9.57332 0.05331 9.69337 0.0232143 9.82397C-0.00688133 9.95457 0.00879069 10.0899 0.0682554 10.2129C0.12772 10.3358 0.228316 10.441 0.357367 10.515C0.486418 10.5891 0.638148 10.6287 0.793437 10.629H15.8475C16.003 10.629 16.1549 10.5895 16.2842 10.5154C16.4134 10.4414 16.5141 10.3362 16.5735 10.213C16.6329 10.0899 16.6484 9.9544 16.6179 9.82373C16.5875 9.69306 16.5125 9.57307 16.4024 9.47897Z" fill="white"/>
<path d="M5.28735 11.9999C5.42143 12.5941 5.80246 13.1263 6.35969 13.4978C6.91692 13.8692 7.61248 14.0547 8.31719 14.0198C9.02204 14.0548 9.71776 13.8693 10.2752 13.4978C10.8326 13.1264 11.2139 12.5941 11.3482 11.9999H5.28735Z" fill="#9E77ED"/>
</g>
<defs>
<clipPath id="clip0_30_72">
<rect width="16.6344" height="14.2602" fill="white"/>
</clipPath>
</defs>
</svg>


