<svg width="24" height="24" viewBox="0 0 24 24" fill="none" xmlns="http://www.w3.org/2000/svg">
<path d="M14 5C15.8635 5 16.7952 5.00034 17.5303 5.30469C18.5104 5.71066 19.2893 6.48961 19.6953 7.46973C19.9997 8.20476 20 9.1365 20 11C20 12.8635 19.9997 13.7952 19.6953 14.5303C19.2893 15.5104 18.5104 16.2893 17.5303 16.6953C16.7952 16.9997 15.8635 17 14 17H8.20711C8.10492 17 8.05383 17 8.00788 17.019C7.96194 17.0381 7.92581 17.0742 7.85355 17.1464L5.70703 19.293C5.07709 19.9228 4.00012 19.4767 4 18.5859V13C4 9.22876 4.0003 7.34345 5.17188 6.17188C6.34345 5.0003 8.22876 5 12 5H14Z" fill="#7B4AE3"/>
<path d="M8.5 9.5L15.5 9.5" stroke="white" stroke-linecap="round" stroke-linejoin="round"/>
<path d="M8.5 12.5L13.5 12.5" stroke="white" stroke-linecap="round" stroke-linejoin="round"/>
</svg>
