<svg width="128" height="22" viewBox="0 0 128 22" fill="none" xmlns="http://www.w3.org/2000/svg">
<g filter="url(#filter0_i_40_68)">
<path d="M6.16 21.328C5.91467 21.328 5.70134 21.2587 5.52 21.12L2.912 18.736L0.272002 15.296C0.154668 15.1467 0.0800014 15.056 0.0480014 15.024C0.0160014 14.9813 1.43051e-06 14.8853 1.43051e-06 14.736V6.576C1.43051e-06 6.42667 0.0160014 6.33067 0.0480014 6.288C0.0906681 6.24534 0.165335 6.15467 0.272002 6.016L2.72 2.848L5.52 0.208002C5.63733 0.112001 5.728 0.0533346 5.792 0.0320015C5.86667 0.0106684 5.98934 1.90735e-06 6.16 1.90735e-06H10.112C10.3787 1.90735e-06 10.512 0.133335 10.512 0.400002V2.96C10.512 3.04534 10.5013 3.136 10.48 3.232C10.4693 3.31734 10.416 3.392 10.32 3.456L7.312 5.52L5.344 8.048V13.28L7.344 15.808L10.32 17.856C10.4053 17.9093 10.4587 17.9733 10.48 18.048C10.5013 18.1227 10.512 18.2027 10.512 18.288V20.928C10.512 21.1947 10.3787 21.328 10.112 21.328H6.16ZM14.012 21.328C13.7453 21.328 13.612 21.1947 13.612 20.928V4.128C13.612 3.86134 13.7453 3.728 14.012 3.728H16.444C16.6467 3.728 16.8227 3.81867 16.972 4L18.54 5.808L20.284 3.92C20.4013 3.792 20.5507 3.728 20.732 3.728H22.46C22.7267 3.728 22.86 3.86134 22.86 4.128V7.568C22.86 7.73867 22.8493 7.856 22.828 7.92C22.8067 7.97334 22.748 8.032 22.652 8.096L18.684 11.024V20.928C18.684 21.1947 18.5507 21.328 18.284 21.328H14.012ZM31.9363 21.328C31.8296 21.328 31.7123 21.312 31.5843 21.28C31.4669 21.248 31.3549 21.2213 31.2483 21.2L28.4003 20.496L25.1363 19.408C24.8163 19.3013 24.6563 18.992 24.6563 18.48V7.84C24.6563 7.584 24.7469 7.37067 24.9283 7.2L28.1283 4C28.3096 3.81867 28.5229 3.728 28.7683 3.728H33.8883C34.1336 3.728 34.3469 3.81867 34.5283 4L37.7283 7.2C37.9096 7.37067 38.0003 7.584 38.0003 7.84V14.4H29.4083L29.2963 16.528L31.5683 17.28L35.6483 17.568C35.8296 17.6 35.9203 17.7227 35.9203 17.936V20.928C35.9203 21.1947 35.7869 21.328 35.5203 21.328H31.9363ZM31.2963 11.888H31.6003C32.1229 11.888 32.5389 11.6907 32.8483 11.296C33.1683 10.9013 33.3283 10.368 33.3283 9.696V9.376C33.3283 8.71467 33.1683 8.18667 32.8483 7.792C32.5389 7.39734 32.1229 7.2 31.6003 7.2H31.2803C30.7683 7.2 30.3576 7.39734 30.0483 7.792C29.7496 8.18667 29.6003 8.71467 29.6003 9.376V9.696C29.6003 10.368 29.7496 10.9013 30.0483 11.296C30.3576 11.6907 30.7736 11.888 31.2963 11.888ZM45.3308 21.328C45.0854 21.328 44.8721 21.2373 44.6908 21.056L41.4908 17.856C41.3094 17.6853 41.2188 17.472 41.2188 17.216V7.84C41.2188 7.584 41.3094 7.37067 41.4908 7.2L44.6908 4C44.8721 3.81867 45.0854 3.728 45.3308 3.728H53.8908C54.1574 3.728 54.2908 3.86134 54.2908 4.128V20.928C54.2908 21.1947 54.1574 21.328 53.8908 21.328H50.5628C50.4241 21.328 50.3174 21.3013 50.2428 21.248C50.1788 21.1947 50.1041 21.1307 50.0188 21.056L49.2188 20.256L48.4188 21.056C48.2481 21.2373 48.0348 21.328 47.7788 21.328H45.3308ZM47.2028 17.6H48.3228C48.6641 17.6 48.8988 17.5307 49.0268 17.392C49.1548 17.2533 49.2188 17.008 49.2188 16.656V7.456H47.2028C46.8508 7.456 46.6108 7.52534 46.4828 7.664C46.3548 7.80267 46.2908 8.048 46.2908 8.4V16.656C46.2908 17.008 46.3548 17.2533 46.4828 17.392C46.6108 17.5307 46.8508 17.6 47.2028 17.6ZM61.6983 21.328C61.4529 21.328 61.2396 21.2373 61.0583 21.056L58.3863 18.4C58.2156 18.2187 58.1303 18.0053 58.1303 17.76V7.456H57.4583C57.1916 7.456 57.0583 7.32267 57.0583 7.056V4.128C57.0583 3.86134 57.1916 3.728 57.4583 3.728H58.1303V1.728C58.1303 1.46134 58.2636 1.328 58.5303 1.328H62.7863C63.0529 1.328 63.1863 1.46134 63.1863 1.728V3.728H64.7383C65.0049 3.728 65.1383 3.86134 65.1383 4.128V7.056C65.1383 7.32267 65.0049 7.456 64.7383 7.456H63.1863V16C63.1863 16.2027 63.2503 16.368 63.3783 16.496L64.9463 18.08C65.0529 18.176 65.1063 18.336 65.1063 18.56V20.928C65.1063 21.1947 64.9729 21.328 64.7063 21.328H61.6983ZM72.0183 21.328C71.7729 21.328 71.5596 21.2373 71.3783 21.056L68.1783 17.856C67.9969 17.6853 67.9063 17.472 67.9063 17.216V7.84C67.9063 7.584 67.9969 7.37067 68.1783 7.2L71.3783 4C71.5596 3.81867 71.7729 3.728 72.0183 3.728H76.8663C77.1223 3.728 77.3356 3.81867 77.5063 4L80.7063 7.2C80.8876 7.37067 80.9783 7.584 80.9783 7.84V17.216C80.9783 17.472 80.8876 17.6853 80.7063 17.856L77.5063 21.056C77.3356 21.2373 77.1223 21.328 76.8663 21.328H72.0183ZM73.8903 17.6H75.0103C75.3516 17.6 75.5863 17.5307 75.7143 17.392C75.8423 17.2533 75.9063 17.008 75.9063 16.656V8.4C75.9063 8.048 75.8423 7.80267 75.7143 7.664C75.5863 7.52534 75.3516 7.456 75.0103 7.456H73.8903C73.5383 7.456 73.2983 7.52534 73.1703 7.664C73.0423 7.80267 72.9783 8.048 72.9783 8.4V16.656C72.9783 17.008 73.0423 17.2533 73.1703 17.392C73.2983 17.5307 73.5383 17.6 73.8903 17.6ZM85.1058 21.328C84.8391 21.328 84.7058 21.1947 84.7058 20.928V4.128C84.7058 3.86134 84.8391 3.728 85.1058 3.728H87.5378C87.7404 3.728 87.9164 3.81867 88.0658 4L89.6338 5.808L91.3778 3.92C91.4951 3.792 91.6444 3.728 91.8258 3.728H93.5538C93.8204 3.728 93.9538 3.86134 93.9538 4.128V7.568C93.9538 7.73867 93.9431 7.856 93.9218 7.92C93.9004 7.97334 93.8418 8.032 93.7458 8.096L89.7778 11.024V20.928C89.7778 21.1947 89.6444 21.328 89.3778 21.328H85.1058ZM96.31 21.328C96.0433 21.328 95.91 21.1947 95.91 20.928V13.248C95.91 13.152 95.9153 13.0667 95.926 12.992C95.9473 12.9173 95.9953 12.8427 96.07 12.768L98.15 10.688V10.128L96.022 8C95.9473 7.91467 95.8993 7.83467 95.878 7.76C95.8673 7.68534 95.862 7.60534 95.862 7.52V0.400002C95.862 0.133335 95.9953 1.90735e-06 96.262 1.90735e-06H100.79C101.057 1.90735e-06 101.19 0.133335 101.19 0.400002V8.24H104.774V0.400002C104.774 0.133335 104.907 1.90735e-06 105.174 1.90735e-06H109.702C109.969 1.90735e-06 110.102 0.133335 110.102 0.400002V7.52C110.102 7.60534 110.097 7.68534 110.086 7.76C110.075 7.83467 110.027 7.91467 109.942 8L107.814 10.128V10.688L109.894 12.768C109.979 12.8427 110.027 12.9173 110.038 12.992C110.049 13.0667 110.054 13.152 110.054 13.248V20.928C110.054 21.1947 109.921 21.328 109.654 21.328H105.11C104.843 21.328 104.71 21.1947 104.71 20.928V12.496H101.254V20.928C101.254 21.1947 101.121 21.328 100.854 21.328H96.31ZM114.356 21.328C114.089 21.328 113.956 21.1947 113.956 20.928V0.400002C113.956 0.133335 114.089 1.90735e-06 114.356 1.90735e-06H123.204C123.46 1.90735e-06 123.673 0.0853354 123.844 0.256002L127.044 3.456C127.225 3.63734 127.316 3.85067 127.316 4.096V9.616C127.316 9.872 127.225 10.0853 127.044 10.256L123.844 13.456C123.673 13.6373 123.46 13.728 123.204 13.728H119.284V20.928C119.284 21.1947 119.15 21.328 118.884 21.328H114.356ZM120.484 9.376C121.369 9.376 121.972 9.2 122.292 8.848C122.622 8.496 122.788 7.82934 122.788 6.848C122.788 5.86667 122.622 5.2 122.292 4.848C121.972 4.496 121.369 4.32 120.484 4.32C119.609 4.32 119.006 4.496 118.676 4.848C118.356 5.2 118.196 5.86667 118.196 6.848C118.196 7.82934 118.356 8.496 118.676 8.848C119.006 9.2 119.609 9.376 120.484 9.376Z" fill="#D4C8FF"/>
</g>
<defs>
<filter id="filter0_i_40_68" x="0" y="0" width="131.316" height="25.328" filterUnits="userSpaceOnUse" color-interpolation-filters="sRGB">
<feFlood flood-opacity="0" result="BackgroundImageFix"/>
<feBlend mode="normal" in="SourceGraphic" in2="BackgroundImageFix" result="shape"/>
<feColorMatrix in="SourceAlpha" type="matrix" values="0 0 0 0 0 0 0 0 0 0 0 0 0 0 0 0 0 0 127 0" result="hardAlpha"/>
<feOffset dx="4" dy="4"/>
<feGaussianBlur stdDeviation="2"/>
<feComposite in2="hardAlpha" operator="arithmetic" k2="-1" k3="1"/>
<feColorMatrix type="matrix" values="0 0 0 0 0 0 0 0 0 0 0 0 0 0 0 0 0 0 0.25 0"/>
<feBlend mode="normal" in2="shape" result="effect1_innerShadow_40_68"/>
</filter>
</defs>
</svg>
