<svg width="24" height="24" viewBox="0 0 24 24" fill="none" xmlns="http://www.w3.org/2000/svg">
<path d="M11.9996 5C16.731 5 19.6358 8.19764 21.0211 10.2705C21.486 10.9661 21.718 11.3145 21.6969 11.957C21.6757 12.5994 21.4091 12.947 20.8756 13.6416C19.2865 15.7106 16.1126 19 11.9996 19C7.8868 18.9998 4.71371 15.7106 3.12462 13.6416C2.59104 12.9469 2.32452 12.5995 2.30333 11.957C2.28217 11.3145 2.51424 10.9661 2.97911 10.2705C4.36445 8.19768 7.26855 5.00013 11.9996 5ZM11.9996 8C9.79061 8.00016 7.99962 9.79096 7.99962 12C7.99962 14.209 9.79061 15.9998 11.9996 16C14.2088 16 15.9996 14.2091 15.9996 12C15.9996 9.79086 14.2088 8 11.9996 8Z" fill="#7B4AE3"/>
</svg>
