<svg width="30" height="26" viewBox="0 0 30 26" fill="none" xmlns="http://www.w3.org/2000/svg">
<rect x="16.25" y="15.1667" width="2.5" height="2.16667" rx="1" fill="#9E77ED"/>
<rect x="8.75" y="11.9167" width="2.5" height="6.5" rx="1" fill="#9E77ED"/>
<rect x="13.75" y="14.0833" width="2.16667" height="7.5" rx="1" transform="rotate(90 13.75 14.0833)" fill="#9E77ED"/>
<rect x="20" y="13" width="2.5" height="2.16667" rx="1" fill="#9E77ED"/>
<path d="M17.5 8.66669C17.5 8.14163 17.5 7.8791 17.446 7.65144C17.3065 7.06334 16.9085 6.56988 16.3633 6.30899C16.1522 6.20799 15.8956 6.1524 15.3825 6.04122L15 5.95835C14.1218 5.76808 13.6827 5.67294 13.3527 5.44181C13.0436 5.22536 12.8021 4.9259 12.656 4.57801C12.5 4.20653 12.5 3.75724 12.5 2.85868V2.16669" stroke="#9E77ED" stroke-width="2" stroke-linecap="round"/>
<path d="M3.75 15.1667C3.75 12.3946 3.75 11.0086 4.52493 10.0538C4.72443 9.80799 4.95715 9.58796 5.21714 9.39934C6.22705 8.66669 7.69303 8.66669 10.625 8.66669H19.375C22.307 8.66669 23.773 8.66669 24.7829 9.39934C25.0429 9.58796 25.2756 9.80799 25.4751 10.0538C26.25 11.0086 26.25 12.3946 26.25 15.1667C26.25 17.9387 26.25 19.3248 25.4751 20.2796C25.2756 20.5254 25.0429 20.7454 24.7829 20.934C23.773 21.6667 22.307 21.6667 19.375 21.6667H10.625C7.69303 21.6667 6.22705 21.6667 5.21714 20.934C4.95715 20.7454 4.72443 20.5254 4.52493 20.2796C3.75 19.3248 3.75 17.9387 3.75 15.1667Z" stroke="#9E77ED" stroke-width="2"/>
</svg>
