<svg width="25" height="22" viewBox="0 0 25 22" fill="none" xmlns="http://www.w3.org/2000/svg">
<rect x="13.5417" y="12.8333" width="2.08333" height="1.83333" rx="0.916667" fill="#9E77ED"/>
<rect x="7.29175" y="10.0833" width="2.08333" height="5.5" rx="1" fill="#9E77ED"/>
<rect x="11.4583" y="11.9167" width="1.83333" height="6.25" rx="0.916667" transform="rotate(90 11.4583 11.9167)" fill="#9E77ED"/>
<rect x="16.6667" y="11" width="2.08333" height="1.83333" rx="0.916667" fill="#9E77ED"/>
<path d="M14.5834 7.33331C14.5834 7.11962 14.5834 7.01277 14.5744 6.91815C14.4986 6.12286 13.9569 5.44894 13.1964 5.20407C13.106 5.17494 13.0016 5.15198 12.7929 5.10607L12.5001 5.04165C12.0134 4.93458 11.7701 4.88104 11.5689 4.78687C11.0086 4.52462 10.6012 4.01788 10.4655 3.41436C10.4167 3.19763 10.4167 2.94847 10.4167 2.45016V1.83331" stroke="#9E77ED" stroke-width="2" stroke-linecap="round"/>
<path d="M3.125 12.8333C3.125 10.4877 3.125 9.31495 3.77077 8.50703C3.93702 8.29903 4.13096 8.11285 4.34762 7.95325C5.18921 7.33331 6.41086 7.33331 8.85417 7.33331H16.1458C18.5891 7.33331 19.8108 7.33331 20.6524 7.95325C20.869 8.11285 21.063 8.29903 21.2292 8.50703C21.875 9.31495 21.875 10.4877 21.875 12.8333C21.875 15.1789 21.875 16.3517 21.2292 17.1596C21.063 17.3676 20.869 17.5538 20.6524 17.7134C19.8108 18.3333 18.5891 18.3333 16.1458 18.3333H8.85417C6.41086 18.3333 5.18921 18.3333 4.34762 17.7134C4.13096 17.5538 3.93702 17.3676 3.77077 17.1596C3.125 16.3517 3.125 15.1789 3.125 12.8333Z" stroke="#9E77ED" stroke-width="2"/>
</svg>
