<svg width="25" height="21" viewBox="0 0 25 21" fill="none" xmlns="http://www.w3.org/2000/svg">
<path d="M23.2464 9.4625C21.5877 8.6225 19.9073 8.7548 18.6722 9.4415V6.23897C18.6716 5.97718 18.5523 5.72623 18.3403 5.54092C18.1283 5.35561 17.8408 5.25098 17.5407 5.24987H13.3542C13.9536 4.25026 14.0307 2.97345 13.253 1.69244C12.9269 1.15698 12.4179 0.723246 11.7965 0.451327C8.66684 -0.915785 5.58771 1.02253 5.58771 3.59085C5.58644 4.1685 5.74588 4.7378 6.05235 5.24987H1.13391C0.833375 5.25042 0.54533 5.35481 0.332818 5.54018C0.120306 5.72556 0.000636059 5.97682 0 6.23897L0 8.6918C0 10.4999 1.35058 9.5801 2.98043 9.5801C3.859 9.5801 4.70159 9.88454 5.32284 10.4265C5.94408 10.9684 6.29309 11.7034 6.29309 12.4697C6.29309 13.2361 5.94408 13.9711 5.32284 14.513C4.70159 15.0549 3.859 15.3594 2.98043 15.3594C1.27595 15.3594 0 13.9187 0 15.8466V20.0109C0 20.2732 0.119465 20.5248 0.332115 20.7103C0.544765 20.8958 0.83318 21 1.13391 21H5.00751C7.08033 21 6.01864 19.824 6.01864 18.4002C6.04192 17.647 6.40126 16.9315 7.0202 16.406C7.63913 15.8804 8.46876 15.5864 9.33251 15.5864C10.1962 15.5864 11.0259 15.8804 11.6448 16.406C12.2637 16.9315 12.6231 17.647 12.6464 18.4002C12.6464 19.887 10.9949 21 13.2049 21H17.5383C17.6874 21.0003 17.8351 20.9749 17.973 20.9253C18.1108 20.8757 18.2361 20.8029 18.3417 20.711C18.4472 20.6192 18.531 20.51 18.5881 20.3899C18.6452 20.2697 18.6746 20.141 18.6746 20.0109V15.498C19.3344 15.8662 20.1014 16.0615 20.8847 16.0608C23.894 16.0608 26.1498 13.2425 24.3707 10.4663C24.1067 10.0493 23.7182 9.7024 23.2464 9.4625Z" fill="#9E77ED"/>
</svg>
