<svg width="25" height="22" viewBox="0 0 25 22" fill="none" xmlns="http://www.w3.org/2000/svg">
<path fill-rule="evenodd" clip-rule="evenodd" d="M11 20.9428C8.8883 20.7093 6.99787 19.7463 5.58496 18.31C5.91572 17.7152 6.38211 17.1608 6.97363 16.6801C7.61737 16.1571 8.39261 15.734 9.25781 15.4428C9.81544 15.2552 10.4012 15.1264 11 15.058V20.9428ZM13 15.058C13.5988 15.1264 14.1846 15.2552 14.7422 15.4428C15.6074 15.734 16.3826 16.1571 17.0264 16.6801C17.6178 17.1607 18.0833 17.7154 18.4141 18.31C17.0012 19.746 15.1115 20.7093 13 20.9428V15.058ZM4.28418 7.36469C4.68041 7.91498 5.15963 8.42298 5.71289 8.8725C7.16479 10.0521 9.03255 10.769 11 10.9516V13.0473C10.1855 13.1229 9.38383 13.2899 8.61914 13.5473C7.54343 13.9094 6.55471 14.4444 5.71289 15.1284C5.16343 15.5748 4.68312 16.0813 4.28418 16.6352C3.46918 15.2814 3.00004 13.6958 3 12.0004C3 10.3049 3.469 8.71864 4.28418 7.36469ZM19.7148 7.36469C20.5302 8.71873 21 10.3047 21 12.0004C21 13.6959 20.53 15.2813 19.7148 16.6352C19.316 16.0815 18.8364 15.5747 18.2871 15.1284C17.4453 14.4444 16.4566 13.9094 15.3809 13.5473C14.6162 13.2899 13.8145 13.1229 13 13.0473V10.9516C14.9674 10.769 16.8352 10.0521 18.2871 8.8725C18.8402 8.4231 19.3187 7.9148 19.7148 7.36469ZM11 8.94183C9.46363 8.76645 8.04815 8.19369 6.97363 7.32074C6.37669 6.83572 5.91337 6.28033 5.58496 5.6889C6.99782 4.25296 8.8886 3.28952 11 3.05609V8.94183ZM13 3.05609C15.1112 3.28949 17.0013 4.25323 18.4141 5.6889C18.0857 6.28017 17.6232 6.83584 17.0264 7.32074C15.9519 8.19369 14.5364 8.76645 13 8.94183V3.05609Z" fill="#9E77ED"/>
</svg>
