<svg width="25" height="23" viewBox="0 0 25 23" fill="none" xmlns="http://www.w3.org/2000/svg">
<path d="M12.5001 19.1667L4.93864 10.471C4.56223 10.0381 4.37403 9.82171 4.32419 9.55403C4.27435 9.28635 4.37206 9.01669 4.56747 8.47736L5.2945 6.47075C5.75642 5.19586 5.98738 4.55841 6.50432 4.19588C7.02127 3.83334 7.69927 3.83334 9.05526 3.83334H15.9449C17.3009 3.83334 17.9789 3.83334 18.4958 4.19588C19.0128 4.55841 19.2437 5.19586 19.7057 6.47075L20.4327 8.47736C20.6281 9.01669 20.7258 9.28635 20.676 9.55403C20.6261 9.82171 20.4379 10.0381 20.0615 10.471L12.5001 19.1667ZM12.5001 19.1667L16.1459 8.62501M12.5001 19.1667L8.85425 8.62501M20.3126 9.58334L16.1459 8.62501M16.1459 8.62501L14.5834 4.79168M16.1459 8.62501H8.85425M10.4167 4.79168L8.85425 8.62501M8.85425 8.62501L4.68758 9.58334" stroke="#9E77ED" stroke-linecap="round"/>
</svg>
