<svg width="27" height="27" viewBox="0 0 27 27" fill="none" xmlns="http://www.w3.org/2000/svg">
<path d="M5.375 19.125H10.125C10.4733 19.125 10.6474 19.125 10.7941 19.1394C12.2184 19.2797 13.3453 20.4066 13.4856 21.8309C13.5 21.9776 13.5 22.1517 13.5 22.5V10.5C13.5 7.67157 13.5 6.25736 12.6213 5.37868C11.7426 4.5 10.3284 4.5 7.5 4.5H5.375C4.43219 4.5 3.96079 4.5 3.66789 4.79289C3.375 5.08579 3.375 5.55719 3.375 6.5V17.125C3.375 18.0678 3.375 18.5392 3.66789 18.8321C3.96079 19.125 4.43219 19.125 5.375 19.125Z" stroke="#9F7AFE" stroke-width="2"/>
<path d="M21.625 19.125H16.875C16.5267 19.125 16.3526 19.125 16.2059 19.1394C14.7816 19.2797 13.6547 20.4066 13.5144 21.8309C13.5 21.9776 13.5 22.1517 13.5 22.5V10.5C13.5 7.67157 13.5 6.25736 14.3787 5.37868C15.2574 4.5 16.6716 4.5 19.5 4.5H21.625C22.5678 4.5 23.0392 4.5 23.3321 4.79289C23.625 5.08579 23.625 5.55719 23.625 6.5V17.125C23.625 18.0678 23.625 18.5392 23.3321 18.8321C23.0392 19.125 22.5678 19.125 21.625 19.125Z" stroke="#9F7AFE" stroke-width="2"/>
</svg>
