<svg width="25" height="23" viewBox="0 0 25 23" fill="none" xmlns="http://www.w3.org/2000/svg">
<path d="M12.5001 19.1666L4.93864 10.471C4.56223 10.0381 4.37403 9.82168 4.32419 9.554C4.27435 9.28632 4.37206 9.01666 4.56747 8.47733L5.2945 6.47072C5.75642 5.19583 5.98738 4.55838 6.50432 4.19585C7.02127 3.83331 7.69927 3.83331 9.05526 3.83331H15.9449C17.3009 3.83331 17.9789 3.83331 18.4958 4.19585C19.0128 4.55838 19.2437 5.19583 19.7057 6.47072L20.4327 8.47733C20.6281 9.01666 20.7258 9.28632 20.676 9.554C20.6261 9.82168 20.4379 10.0381 20.0615 10.471L12.5001 19.1666ZM12.5001 19.1666L16.1459 8.62498M12.5001 19.1666L8.85425 8.62498M20.3126 9.58331L16.1459 8.62498M16.1459 8.62498L14.5834 4.79165M16.1459 8.62498H8.85425M10.4167 4.79165L8.85425 8.62498M8.85425 8.62498L4.68758 9.58331" stroke="#9E77ED" stroke-linecap="round"/>
</svg>
