<svg width="25" height="24" viewBox="0 0 25 24" fill="none" xmlns="http://www.w3.org/2000/svg">
<path fill-rule="evenodd" clip-rule="evenodd" d="M12.542 7C12.542 7.44313 12.5402 7.87603 12.5879 8.23047C12.6394 8.61366 12.7647 9.05086 13.1279 9.41406C13.4911 9.77715 13.9284 9.90259 14.3115 9.9541C14.6659 10.0017 15.099 10 15.542 10H20.833V16C20.833 18.8283 20.8332 20.2424 19.918 21.1211C19.0027 21.9998 17.5293 22 14.583 22H10.417C7.47071 22 5.99732 21.9998 5.08203 21.1211C4.16682 20.2424 4.16699 18.8283 4.16699 16V8C4.16699 5.17165 4.16682 3.75759 5.08203 2.87891C5.99732 2.00023 7.47071 2 10.417 2H12.542V7ZM9.375 16C8.82272 16 8.375 16.4477 8.375 17C8.375 17.5523 8.82272 18 9.375 18H13.542C14.0941 17.9998 14.542 17.5522 14.542 17C14.542 16.4478 14.0941 16.0002 13.542 16H9.375ZM9.375 12C8.82272 12 8.375 12.4477 8.375 13C8.375 13.5523 8.82272 14 9.375 14H15.625C16.1773 14 16.625 13.5523 16.625 13C16.625 12.4477 16.1773 12 15.625 12H9.375ZM14.542 2.00488C14.9941 2.01398 15.2878 2.04426 15.5596 2.15234C15.9423 2.30461 16.2437 2.59394 16.8457 3.17188L19.6133 5.82812C20.2154 6.40617 20.5162 6.69594 20.6748 7.06348C20.7838 7.31625 20.8156 7.58859 20.8262 8H15.542C15.0428 8 14.7683 7.99816 14.5781 7.97266C14.5756 7.97232 14.5727 7.97111 14.5703 7.9707C14.57 7.96855 14.5696 7.96611 14.5693 7.96387C14.5438 7.77368 14.542 7.4995 14.542 7V2.00488Z" fill="#9F7AFE"/>
</svg>
