<svg width="30" height="28" viewBox="0 0 30 28" fill="none" xmlns="http://www.w3.org/2000/svg">
<g clip-path="url(#clip0_30_165)">
<path fill-rule="evenodd" clip-rule="evenodd" d="M4.44644 1.60175C3.8619 1.60149 3.28305 1.70606 2.74304 1.90948C2.20303 2.11289 1.71246 2.41115 1.29943 2.78717C0.886402 3.1632 0.559026 3.6096 0.33605 4.10081C0.113075 4.59203 -0.00111916 5.1184 8.26736e-06 5.6498V22.2725C0.00397455 23.1776 0.402099 24.0444 1.10728 24.6833C1.81246 25.3221 2.76729 25.6811 3.76287 25.6816H26.2372C26.7316 25.6837 27.2215 25.5967 27.6788 25.4258C28.1361 25.2549 28.5516 25.0033 28.9014 24.6857C29.2512 24.368 29.5284 23.9906 29.717 23.5751C29.9055 23.1595 30.0017 22.7142 30 22.2647V5.6498C30.0003 5.11922 29.8856 4.59379 29.6625 4.10351C29.4394 3.61322 29.1123 3.16769 28.6998 2.79233C28.2873 2.41698 27.7976 2.11916 27.2585 1.91588C26.7194 1.7126 26.1415 1.60785 25.5579 1.60759L4.44644 1.60175ZM26.2329 20.0459C26.234 20.3552 26.1679 20.6617 26.0384 20.9478C25.9089 21.2339 25.7185 21.4939 25.4782 21.7129C25.2379 21.9319 24.9524 22.1056 24.638 22.224C24.3237 22.3425 23.9867 22.4033 23.6464 22.403H6.35358C6.0133 22.4033 5.67632 22.3425 5.36197 22.224C5.04763 22.1056 4.7621 21.9319 4.52179 21.7129C4.28148 21.4939 4.09111 21.2339 3.96161 20.9478C3.8321 20.6617 3.76602 20.3552 3.76715 20.0459V11.7569C3.76687 11.4481 3.83358 11.1422 3.96346 10.8568C4.09334 10.5714 4.28384 10.3121 4.52407 10.0938C4.7643 9.87536 5.04954 9.70218 5.36346 9.5841C5.67739 9.46603 6.01385 9.40539 6.35358 9.40564H23.6464C23.9862 9.40539 24.3226 9.46603 24.6366 9.5841C24.9505 9.70218 25.2357 9.87536 25.4759 10.0938C25.7162 10.3121 25.9067 10.5714 26.0366 10.8568C26.1664 11.1422 26.2331 11.4481 26.2329 11.7569V20.0459Z" fill="#9E77ED"/>
</g>
<line x1="15.5" y1="7" x2="15.5" y2="24" stroke="#9E77ED"/>
<line x1="1" y1="15.5" x2="28" y2="15.5" stroke="#9E77ED"/>
<defs>
<clipPath id="clip0_30_165">
<rect width="30" height="27.2727" fill="white"/>
</clipPath>
</defs>
</svg>
