<svg width="60" height="60" viewBox="0 0 60 60" fill="none" xmlns="http://www.w3.org/2000/svg">
<circle cx="30" cy="30" r="30" fill="#3F4452"/>
<g clip-path="url(#clip0_8_59)">
<path d="M13.9535 14.2679V40.3709C13.9564 41.1338 14.2494 41.8649 14.7691 42.4065C15.2889 42.9481 15.9938 43.2569 16.7318 43.2662H17.8505C18.5926 43.265 19.304 42.9594 19.8283 42.4166C20.3527 41.8737 20.6472 41.138 20.6472 40.3709V14.2679C20.6472 13.5009 20.3527 12.7651 19.8283 12.2223C19.304 11.6794 18.5926 11.3738 17.8505 11.3726H16.7295C15.9919 11.3825 15.2876 11.6916 14.7683 12.2331C14.2491 12.7747 13.9564 13.5055 13.9535 14.2679V14.2679Z" fill="#9E77ED"/>
<path d="M26.6486 29.4898V40.3698C26.6515 41.1326 26.9445 41.8637 27.4642 42.4054C27.984 42.947 28.6889 43.2558 29.4269 43.2651H30.5548C31.2969 43.2639 32.0082 42.9583 32.5326 42.4154C33.0569 41.8726 33.3514 41.1368 33.3514 40.3698V29.4898C33.3484 28.7248 33.0526 27.9921 32.5286 27.4518C32.0045 26.9115 31.2949 26.6075 30.5548 26.6063H29.4246C28.689 26.6162 27.9864 26.9236 27.4674 27.4626C26.9485 28.0017 26.6545 28.7294 26.6486 29.4898Z" fill="#9E77ED"/>
<path d="M39.3436 21.2232V40.3698C39.3466 41.1327 39.6395 41.8638 40.1593 42.4054C40.679 42.947 41.384 43.2558 42.122 43.2651H43.2498C43.992 43.2639 44.7033 42.9583 45.2276 42.4154C45.752 41.8726 46.0465 41.1369 46.0465 40.3698V21.2232C46.0459 20.4565 45.7511 19.7214 45.2268 19.1791C44.7026 18.6368 43.9916 18.3315 43.2498 18.3302H42.1197C41.3823 18.3396 40.6779 18.6481 40.1586 19.1893C39.6393 19.7305 39.3466 20.461 39.3436 21.2232Z" fill="#9E77ED"/>
</g>
<defs>
<clipPath id="clip0_8_59">
<rect width="32.093" height="33.1707" fill="white" transform="translate(13.9535 10.7317)"/>
</clipPath>
</defs>
</svg>
