<svg width="60" height="60" viewBox="0 0 60 60" fill="none" xmlns="http://www.w3.org/2000/svg">
<circle cx="30" cy="30" r="30" fill="#3F4452"/>
<g clip-path="url(#clip0_8_74)">
<path d="M24.6669 24.6666C19.6469 24.6666 15.8598 26.4695 15.8598 28.8609C15.8598 31.2523 19.6469 33.0538 24.6669 33.0538C29.6869 33.0538 33.4741 31.2509 33.4741 28.8609C33.4741 26.4709 29.6869 24.6666 24.6669 24.6666Z" fill="#9E77ED"/>
<path d="M24.6667 35.7152C21.5804 35.8446 18.5224 35.0808 15.8595 33.5152V34.6666C15.8595 37.0581 19.6467 38.8609 24.6667 38.8609C29.6867 38.8609 33.4738 37.0581 33.4738 34.6666V33.5152C30.811 35.0808 27.7529 35.8446 24.6667 35.7152Z" fill="#9E77ED"/>
<path d="M24.6667 41.5238C21.5804 41.6532 18.5224 40.8893 15.8595 39.3238V40.4752C15.8595 42.8638 19.6467 44.6666 24.6667 44.6666C29.6867 44.6666 33.4738 42.8638 33.4738 40.4724V39.3209C30.8113 40.8875 27.7532 41.6524 24.6667 41.5238Z" fill="#9E77ED"/>
</g>
<g clip-path="url(#clip1_8_74)">
<path d="M34.6669 14.6666C29.6469 14.6666 25.8598 16.4695 25.8598 18.8609C25.8598 21.2523 29.6469 23.0538 34.6669 23.0538C39.6869 23.0538 43.4741 21.2509 43.4741 18.8609C43.4741 16.4709 39.6869 14.6666 34.6669 14.6666Z" fill="#9E77ED"/>
<path d="M34.6667 25.7152C31.5804 25.8446 28.5224 25.0808 25.8595 23.5152V24.6666C25.8595 27.0581 29.6467 28.8609 34.6667 28.8609C39.6867 28.8609 43.4738 27.0581 43.4738 24.6666V23.5152C40.811 25.0808 37.7529 25.8446 34.6667 25.7152Z" fill="#9E77ED"/>
<path d="M34.6667 31.5238C31.5804 31.6532 28.5224 30.8893 25.8595 29.3238V30.4752C25.8595 32.8638 29.6467 34.6666 34.6667 34.6666C39.6867 34.6666 43.4738 32.8638 43.4738 30.4724V29.3209C40.8113 30.8875 37.7532 31.6524 34.6667 31.5238Z" fill="#9E77ED"/>
</g>
<defs>
<clipPath id="clip0_8_74">
<rect width="20" height="20" fill="white" transform="translate(14.6667 24.6666)"/>
</clipPath>
<clipPath id="clip1_8_74">
<rect width="20" height="20" fill="white" transform="translate(24.6667 14.6666)"/>
</clipPath>
</defs>
</svg>
