<svg width="30" height="30" viewBox="0 0 30 30" fill="none" xmlns="http://www.w3.org/2000/svg">
<path d="M14.9972 0.411117C14.9972 0.180955 15.1839 -0.00623249 15.4139 0.000158955C18.2354 0.0785399 20.9807 0.951536 23.3323 2.5228C25.7995 4.17133 27.7224 6.51445 28.858 9.25585C29.9935 11.9973 30.2906 15.0138 29.7117 17.9241C29.1328 20.8343 27.704 23.5076 25.6058 25.6058C23.5076 27.704 20.8343 29.1328 17.9241 29.7117C15.0138 30.2906 11.9973 29.9935 9.25585 28.858C6.51445 27.7224 4.17133 25.7995 2.5228 23.3323C0.951536 20.9807 0.0785398 18.2354 0.000158955 15.4139C-0.00623248 15.1839 0.180955 14.9972 0.411117 14.9972H1.66135C1.89151 14.9972 2.07739 15.1838 2.08482 15.4139C2.16255 17.8232 2.91306 20.1658 4.25535 22.1746C5.67492 24.2992 7.69261 25.955 10.0533 26.9329C12.4139 27.9107 15.0115 28.1665 17.5176 27.668C20.0236 27.1695 22.3256 25.9391 24.1324 24.1324C25.9391 22.3256 27.1695 20.0236 27.668 17.5176C28.1665 15.0115 27.9107 12.4139 26.9329 10.0533C25.955 7.69261 24.2992 5.67492 22.1746 4.25535C20.1658 2.91306 17.8232 2.16255 15.4139 2.08482C15.1838 2.07739 14.9972 1.89151 14.9972 1.66135V0.411117Z" fill="#9E77ED"/>
<path d="M14.9972 5.20368C14.9972 4.97352 15.1839 4.78605 15.4138 4.79544C16.8815 4.85538 18.3208 5.23142 19.6325 5.89979C21.0682 6.63129 22.3104 7.69219 23.2574 8.99575C24.2045 10.2993 24.8297 11.8085 25.0817 13.3999C25.3338 14.9914 25.2056 16.6199 24.7077 18.1523C24.2098 19.6847 23.3563 21.0776 22.2169 22.2169C21.0776 23.3563 19.6847 24.2098 18.1523 24.7077C16.6199 25.2056 14.9914 25.3338 13.4 25.0817C11.9459 24.8514 10.5605 24.3097 9.33782 23.4955C9.14625 23.3679 9.10542 23.1065 9.24071 22.9203L9.97569 21.9087C10.111 21.7225 10.371 21.6822 10.5639 21.8077C11.5195 22.4298 12.5967 22.8446 13.7259 23.0235C14.9926 23.2241 16.2887 23.1221 17.5084 22.7258C18.728 22.3295 19.8366 21.6502 20.7434 20.7434C21.6502 19.8366 22.3295 18.728 22.7258 17.5084C23.1221 16.2887 23.2241 14.9926 23.0235 13.7259C22.8229 12.4593 22.3253 11.2581 21.5715 10.2206C20.8177 9.18314 19.8291 8.33877 18.6865 7.75657C17.6678 7.23752 16.5525 6.93998 15.4138 6.88153C15.1839 6.86973 14.9972 6.68426 14.9972 6.4541V5.20368Z" fill="#9E77ED"/>
<path d="M14.9972 9.99625C14.9972 9.76608 15.184 9.57783 15.4135 9.59552C16.41 9.67231 17.3687 10.0236 18.1816 10.6142C19.1072 11.2867 19.7962 12.2349 20.1497 13.323C20.5033 14.4111 20.5033 15.5832 20.1497 16.6713C19.8392 17.6269 19.27 18.4747 18.509 19.1225C18.3338 19.2717 18.0719 19.2292 17.9367 19.043L17.2018 18.0316C17.0666 17.8454 17.11 17.5866 17.2779 17.4291C17.6864 17.046 17.9936 16.5644 18.168 16.0275C18.3856 15.3578 18.3856 14.6365 18.168 13.9669C17.9505 13.2973 17.5265 12.7137 16.9569 12.2999C16.5001 11.968 15.9686 11.759 15.4129 11.6892C15.1845 11.6605 14.9972 11.4766 14.9972 11.2464V9.99625Z" fill="#9E77ED"/>
</svg>
