<svg width="65" height="65" viewBox="0 0 65 65" fill="none" xmlns="http://www.w3.org/2000/svg">
<circle cx="32.5" cy="32.5" r="32.5" fill="#3F4452"/>
<g clip-path="url(#clip0_8_67)">
<path fill-rule="evenodd" clip-rule="evenodd" d="M32.8602 26.753L39.0588 20.6592L20.5614 20.5752C20.2783 20.5741 19.9983 20.5176 19.7372 20.4087C19.4762 20.2999 19.2393 20.1409 19.0401 19.9409C18.8409 19.7409 18.6833 19.5038 18.5763 19.2431C18.4693 18.9825 18.4151 18.7034 18.4167 18.4218C18.418 18.1405 18.4751 17.8621 18.5846 17.6027C18.6941 17.3433 18.854 17.1079 19.055 16.9099C19.2561 16.712 19.4944 16.5554 19.7563 16.4491C20.0182 16.3428 20.2986 16.2889 20.5815 16.2905L39.0749 16.3726L32.9587 10.2168C32.7594 10.0171 32.6016 9.78036 32.4943 9.51999C32.387 9.25962 32.3323 8.98076 32.3334 8.69937C32.3346 8.41798 32.3914 8.13957 32.5008 7.88005C32.6102 7.62054 32.7699 7.38501 32.9708 7.18693C33.3771 6.78709 33.9262 6.56399 34.4977 6.56661C35.0692 6.56924 35.6163 6.79738 36.0188 7.20094L46.0784 17.3052C46.4081 17.6369 46.5919 18.0853 46.5892 18.5518C46.5866 19.0183 46.3978 19.4647 46.0643 19.7927L35.8981 29.7988C35.4922 30.1986 34.9434 30.4216 34.3722 30.419C33.801 30.4164 33.2543 30.1883 32.8521 29.7848C32.6524 29.5853 32.4942 29.3485 32.3866 29.0881C32.2789 28.8277 32.2239 28.5488 32.2246 28.2672C32.2254 27.9857 32.2819 27.707 32.3909 27.4472C32.5 27.1874 32.6594 26.9515 32.8602 26.753Z" fill="#9E77ED"/>
</g>
<g clip-path="url(#clip1_8_67)">
<path fill-rule="evenodd" clip-rule="evenodd" d="M32.14 38.2481L25.9413 44.3418L44.4388 44.4259C44.7218 44.4269 45.0019 44.4835 45.2629 44.5923C45.5239 44.7011 45.7608 44.8601 45.96 45.0601C46.1593 45.2601 46.3169 45.4973 46.4238 45.7579C46.5308 46.0186 46.585 46.2977 46.5834 46.5792C46.5821 46.8606 46.5251 47.1389 46.4155 47.3984C46.306 47.6578 46.1462 47.8932 45.9451 48.0911C45.7441 48.2891 45.5058 48.4457 45.2438 48.5519C44.9819 48.6582 44.7015 48.7121 44.4186 48.7105L25.9252 48.6285L32.0414 54.7843C32.2407 54.9839 32.3986 55.2207 32.5059 55.4811C32.6132 55.7414 32.6678 56.0203 32.6667 56.3017C32.6656 56.5831 32.6087 56.8615 32.4993 57.121C32.39 57.3805 32.2303 57.616 32.0293 57.8141C31.6231 58.214 31.0739 58.4371 30.5024 58.4344C29.9309 58.4318 29.3838 58.2037 28.9813 57.8001L18.9218 47.6959C18.5928 47.3634 18.4101 46.9145 18.4139 46.448C18.4177 45.9815 18.6076 45.5356 18.9419 45.2084L29.108 35.2022C29.5139 34.8025 30.0628 34.5794 30.634 34.5821C31.2051 34.5847 31.7519 34.8128 32.1541 35.2162C32.3533 35.4162 32.5111 35.6532 32.6182 35.9138C32.7254 36.1744 32.7798 36.4535 32.7785 36.735C32.7772 37.0166 32.7201 37.2951 32.6106 37.5548C32.501 37.8144 32.3411 38.05 32.14 38.2481Z" fill="#9E77ED"/>
</g>
<defs>
<clipPath id="clip0_8_67">
<rect width="28.1667" height="28.0172" fill="white" transform="translate(18.4167 4.48273)"/>
</clipPath>
<clipPath id="clip1_8_67">
<rect width="28.1667" height="28.0172" fill="white" transform="translate(18.4167 32.5)"/>
</clipPath>
</defs>
</svg>
