<svg width="30" height="30" viewBox="0 0 30 30" fill="none" xmlns="http://www.w3.org/2000/svg">
<path d="M2.5 10.25C2.5 8.36438 2.5 7.42157 3.08579 6.83579C3.67157 6.25 4.61438 6.25 6.5 6.25H23.5C25.3856 6.25 26.3284 6.25 26.9142 6.83579C27.5 7.42157 27.5 8.36438 27.5 10.25V11.5C27.5 11.9714 27.5 12.2071 27.3536 12.3536C27.2071 12.5 26.9714 12.5 26.5 12.5H3.5C3.0286 12.5 2.79289 12.5 2.64645 12.3536C2.5 12.2071 2.5 11.9714 2.5 11.5V10.25Z" fill="#AFB3CC"/>
<path fill-rule="evenodd" clip-rule="evenodd" d="M26.5 15C26.9714 15 27.2071 15 27.3535 15.1465C27.5 15.2929 27.5 15.5286 27.5 16V23.5C27.5 25.3856 27.4998 26.3283 26.9141 26.9141C26.3283 27.4998 25.3856 27.5 23.5 27.5H6.5C4.61438 27.5 3.67172 27.4998 3.08594 26.9141C2.50015 26.3283 2.5 25.3856 2.5 23.5V16C2.5 15.5286 2.50004 15.2929 2.64648 15.1465C2.79293 15 3.0286 15 3.5 15H26.5ZM9.75 22.5C9.2786 22.5 9.04293 22.5 8.89648 22.6465C8.75004 22.7929 8.75 23.0286 8.75 23.5V24C8.75 24.4714 8.75004 24.7071 8.89648 24.8535C9.04293 25 9.2786 25 9.75 25H12.75C13.2214 25 13.4571 25 13.6035 24.8535C13.75 24.7071 13.75 24.4714 13.75 24V23.5C13.75 23.0286 13.75 22.7929 13.6035 22.6465C13.4571 22.5 13.2214 22.5 12.75 22.5H9.75ZM17.25 22.5C16.7786 22.5 16.5429 22.5 16.3965 22.6465C16.25 22.7929 16.25 23.0286 16.25 23.5V24C16.25 24.4714 16.25 24.7071 16.3965 24.8535C16.5429 25 16.7786 25 17.25 25H20.25C20.7214 25 20.9571 25 21.1035 24.8535C21.25 24.7071 21.25 24.4714 21.25 24V23.5C21.25 23.0286 21.25 22.7929 21.1035 22.6465C20.9571 22.5 20.7214 22.5 20.25 22.5H17.25ZM9.75 17.5C9.2786 17.5 9.04293 17.5 8.89648 17.6465C8.75004 17.7929 8.75 18.0286 8.75 18.5V19C8.75 19.4714 8.75004 19.7071 8.89648 19.8535C9.04293 20 9.2786 20 9.75 20H12.75C13.2214 20 13.4571 20 13.6035 19.8535C13.75 19.7071 13.75 19.4714 13.75 19V18.5C13.75 18.0286 13.75 17.7929 13.6035 17.6465C13.4571 17.5 13.2214 17.5 12.75 17.5H9.75ZM17.25 17.5C16.7786 17.5 16.5429 17.5 16.3965 17.6465C16.25 17.7929 16.25 18.0286 16.25 18.5V19C16.25 19.4714 16.25 19.7071 16.3965 19.8535C16.5429 20 16.7786 20 17.25 20H20.25C20.7214 20 20.9571 20 21.1035 19.8535C21.25 19.7071 21.25 19.4714 21.25 19V18.5C21.25 18.0286 21.25 17.7929 21.1035 17.6465C20.9571 17.5 20.7214 17.5 20.25 17.5H17.25Z" fill="#AFB3CC"/>
<path d="M8.75 3.75L8.75 7.5" stroke="#AFB3CC" stroke-width="2" stroke-linecap="round"/>
<path d="M21.25 3.75L21.25 7.5" stroke="#AFB3CC" stroke-width="2" stroke-linecap="round"/>
</svg>
