<svg width="35" height="38" viewBox="0 0 35 38" fill="none" xmlns="http://www.w3.org/2000/svg">
<g clip-path="url(#clip0_89_103)">
<path d="M11.6671 12.6667C5.81042 12.6667 1.39209 14.9503 1.39209 17.9794C1.39209 21.0086 5.81042 23.2904 11.6671 23.2904C17.5238 23.2904 21.9421 21.0068 21.9421 17.9794C21.9421 14.9521 17.5238 12.6667 11.6671 12.6667Z" fill="#9E77ED"/>
<path d="M11.6666 26.6615C8.06597 26.8255 4.49825 25.8579 1.3916 23.8748V25.3333C1.3916 28.3624 5.80993 30.6461 11.6666 30.6461C17.5233 30.6461 21.9416 28.3624 21.9416 25.3333V23.8748C18.8349 25.8579 15.2672 26.8255 11.6666 26.6615Z" fill="#9E77ED"/>
<path d="M11.6666 34.019C8.06597 34.183 4.49825 33.2154 1.3916 31.2324V32.6909C1.3916 35.7164 5.80993 38 11.6666 38C17.5233 38 21.9416 35.7164 21.9416 32.6872V31.2288C18.8353 33.2131 15.2676 34.1819 11.6666 34.019Z" fill="#9E77ED"/>
</g>
<g clip-path="url(#clip1_89_103)">
<path d="M23.3336 0C17.4769 0 13.0586 2.28362 13.0586 5.31276C13.0586 8.3419 17.4769 10.6237 23.3336 10.6237C29.1903 10.6237 33.6086 8.34009 33.6086 5.31276C33.6086 2.28543 29.1903 0 23.3336 0Z" fill="#9E77ED"/>
<path d="M23.3331 13.9948C19.7325 14.1588 16.1648 13.1912 13.0581 11.2082V12.6666C13.0581 15.6958 17.4764 17.9794 23.3331 17.9794C29.1898 17.9794 33.6081 15.6958 33.6081 12.6666V11.2082C30.5015 13.1912 26.9337 14.1588 23.3331 13.9948Z" fill="#9E77ED"/>
<path d="M23.3331 21.3524C19.7325 21.5163 16.1648 20.5488 13.0581 18.5657V20.0242C13.0581 23.0497 17.4764 25.3333 23.3331 25.3333C29.1898 25.3333 33.6081 23.0497 33.6081 20.0206V18.5621C30.5018 20.5464 26.9341 21.5153 23.3331 21.3524Z" fill="#9E77ED"/>
</g>
<defs>
<clipPath id="clip0_89_103">
<rect width="23.3333" height="25.3333" fill="white" transform="translate(0 12.6667)"/>
</clipPath>
<clipPath id="clip1_89_103">
<rect width="23.3333" height="25.3333" fill="white" transform="translate(11.6665)"/>
</clipPath>
</defs>
</svg>
