<svg width="57" height="58" viewBox="0 0 57 58" fill="none" xmlns="http://www.w3.org/2000/svg">
<path fill-rule="evenodd" clip-rule="evenodd" d="M29.875 19.75C29.875 20.1929 29.8733 20.6262 29.9209 20.9805C29.9724 21.3635 30.0979 21.801 30.4609 22.1641C30.8241 22.5272 31.2614 22.6536 31.6445 22.7051C31.9989 22.7527 32.4319 22.75 32.875 22.75H47.5V38.667C47.5 45.502 47.4998 48.9195 45.4131 51.043C43.3262 53.1664 39.9675 53.167 33.25 53.167H23.75C17.0325 53.167 13.6738 53.1664 11.5869 51.043C9.50017 48.9195 9.5 45.502 9.5 38.667V19.333C9.5 12.498 9.50017 9.08048 11.5869 6.95703C13.6738 4.83356 17.0325 4.83301 23.75 4.83301H29.875V19.75ZM21.375 40.083C20.8228 40.083 20.3752 40.5309 20.375 41.083C20.375 41.6353 20.8227 42.083 21.375 42.083H30.875C31.4273 42.083 31.875 41.6353 31.875 41.083C31.8748 40.5309 31.4272 40.083 30.875 40.083H21.375ZM21.375 30.417C20.8227 30.417 20.375 30.8647 20.375 31.417C20.3752 31.9691 20.8228 32.417 21.375 32.417H35.625C36.1772 32.417 36.6248 31.9691 36.625 31.417C36.625 30.8647 36.1773 30.417 35.625 30.417H21.375ZM31.875 4.83398C33.6941 4.83436 34.6309 4.84513 35.4756 5.20117C36.3484 5.56912 37.0345 6.2682 38.4072 7.66504L44.7178 14.085C46.0907 15.4819 46.7771 16.1811 47.1387 17.0693C47.4895 17.9315 47.4987 18.8877 47.499 20.75H32.875C32.3755 20.75 32.1013 20.7482 31.9111 20.7227C31.9085 20.7223 31.9058 20.7211 31.9033 20.7207C31.903 20.7187 31.9026 20.7159 31.9023 20.7139C31.8768 20.5237 31.875 20.249 31.875 19.75V4.83398Z" fill="#B48AFF"/>
</svg>
