<svg width="35" height="34" viewBox="0 0 35 34" fill="none" xmlns="http://www.w3.org/2000/svg">
<path fill-rule="evenodd" clip-rule="evenodd" d="M17.5 5.66698C23.9433 5.66699 29.167 10.7408 29.167 17C29.167 23.2592 23.9433 28.333 17.5 28.333C12.6451 28.333 8.48373 25.4523 6.72656 21.3545L16.8965 18.708C17.0862 18.6586 17.3761 18.5863 17.6201 18.4863C17.9047 18.3696 18.3305 18.1377 18.6152 17.6445C18.9 17.1511 18.888 16.6661 18.8467 16.3613C18.8112 16.1 18.7289 15.813 18.6768 15.624L15.957 5.76756C16.462 5.70274 16.9768 5.66698 17.5 5.66698ZM15.6484 15.9316L5.93262 18.4609C5.86922 17.9825 5.83301 17.4952 5.83301 17C5.83301 12.2708 8.81588 8.22021 13.0527 6.52147L15.6484 15.9316Z" fill="#9F7AFE"/>
<path d="M14.2495 5.2163C13.9967 4.29964 13.8703 3.8413 13.4672 3.64298C13.0642 3.44466 12.6615 3.60884 11.8561 3.93719C10.7045 4.40671 9.61722 5.01903 8.62207 5.76082C7.10271 6.89336 5.82786 8.30551 4.8703 9.91666C3.91274 11.5278 3.29124 13.3064 3.04127 15.1509C2.87971 16.3429 2.87539 17.5474 3.02634 18.7354C3.13539 19.5937 3.18992 20.0228 3.56452 20.2763C3.93912 20.5298 4.39977 20.4099 5.32107 20.17L15.5361 17.5112C16.4606 17.2705 16.9229 17.1502 17.1321 16.7877C17.3413 16.4253 17.2143 15.9648 16.9603 15.0438L14.2495 5.2163Z" fill="#9F7AFE"/>
</svg>
